<svg width="146" height="64" viewBox="0 0 146 64" fill="none" xmlns="http://www.w3.org/2000/svg">
<g clip-path="url(#clip0_2572_11891)">
<path d="M138.686 20.3753C138.686 20.3753 139.661 19.0331 140.21 18.301C140.698 17.6299 141.429 16.5317 141.734 15.6775C141.917 15.1895 142.77 13.0541 142.1 10.9797C141.551 9.14942 140.149 7.25809 137.589 6.83102C136.065 6.52596 133.992 6.709 131.98 7.50213C130.883 7.92921 129.542 8.78335 128.993 9.08841C128.871 9.14942 128.81 9.21043 128.81 9.21043L130.091 6.95304L120.946 7.56314C120.946 7.56314 116.131 15.2505 115.46 16.1656C115.277 16.4097 110.157 20.4974 105.767 22.7548C102.293 24.5241 99.0617 24.036 101.195 20.6194C103.878 16.2876 107.535 13.9082 107.535 13.9082L104.182 8.60032C104.182 8.60032 100.952 10.0036 97.4158 10.7967C93.9411 11.5898 93.0267 11.6508 92.5999 11.6508C92.2951 11.6508 92.2342 11.3458 92.478 10.8577C92.7828 10.3696 93.5753 8.66133 92.9047 7.62415C91.9903 6.28192 90.5273 5.73283 87.906 6.64799C85.2847 7.56314 83.273 9.39346 82.6025 10.9797C81.9928 12.566 82.2977 13.8472 83.0901 14.7014C84.0045 15.6775 84.6751 15.6775 84.6751 15.6775C84.6751 15.6775 84.7361 15.7996 84.6751 15.8606C83.8826 17.0808 80.7127 21.1685 78.762 23.1208C77.7256 24.158 73.3365 28.1847 71.8125 28.7338C69.5569 29.5879 68.4597 28.7338 69.496 26.1103C70.2275 24.219 71.3248 22.2057 72.9098 19.3992C74.7995 16.0436 76.6283 13.0541 76.6283 13.0541L67.2405 14.6404L66.0822 16.7147C66.0822 16.7147 65.9603 16.6537 65.2897 15.8606C64.3753 14.8234 62.0588 14.1523 58.4012 15.0674C55.2313 15.8606 53.4634 16.8977 51.3298 18.606C50.2325 19.4602 48.4647 21.1075 46.6359 23.2428C45.0509 25.0732 44.0755 27.1475 44.0755 27.1475C44.0755 27.1475 37.3699 33.4316 31.7006 37.6413C25.6655 42.0951 23.288 43.6814 20.1791 44.1694C16.2776 44.8406 14.3878 42.7052 14.083 38.8615C13.5954 32.3334 17.6797 22.0226 22.6175 15.7996C31.03 5.18373 41.2104 2.80433 43.7098 5.73283C46.5139 9.02739 38.3453 16.5927 34.7486 19.7042L43.5269 17.2028C43.5269 17.2028 47.4893 14.1523 49.0133 11.1018C50.8421 7.3191 49.8058 2.43826 45.1118 0.790979C37.3089 -1.83247 22.8613 1.58412 9.75485 18.423C-2.37625 33.9807 -1.58377 47.22 3.47594 52.5279C7.13356 56.3715 14.2659 58.995 32.3711 43.3153C37.4308 38.9835 41.3323 35.0179 41.3323 35.0179C41.3323 35.0179 41.2713 35.933 41.2713 37.2752C41.2713 38.3124 42.1858 42.0951 45.7824 41.9731C47.3064 41.9121 50.1106 40.6918 52.3661 39.0446C55.5361 36.7262 58.0354 33.7977 58.0354 33.7977C58.0354 33.7977 58.4012 33.7366 58.2183 34.1027C57.8526 35.0789 58.2183 36.5431 58.8889 37.0922C59.6814 37.7023 60.9006 38.1904 63.3999 37.7023C71.8734 36.2381 78.701 28.2457 81.8709 24.9511C85.4066 21.2295 89.0643 16.1656 89.0643 16.1656C89.0643 16.1656 89.2471 16.1656 91.015 15.9216C92.7828 15.6775 96.1356 14.9454 96.1356 14.9454C96.1356 14.9454 90.5273 19.6432 88.8204 22.9378C85.8333 28.7948 89.43 32.0283 94.7336 31.2352C100.891 30.3201 110.827 24.097 110.827 24.097C110.827 24.097 105.767 33.3096 105.402 33.3096C102.476 33.6146 74.4947 38.8615 65.2288 41.485C59.8642 43.0102 51.3298 45.2066 40.8446 49.1723C28.2258 53.9921 15.9728 59.9101 15.9728 59.9101C15.9728 59.9101 20.362 58.995 28.5306 59.4221C31.5787 59.5441 37.0041 60.5202 40.6008 61.6184C44.0146 62.6556 46.2701 63.9978 46.2701 63.9978C46.2701 63.9978 55.0484 55.0293 67.7281 49.0503C80.1031 43.1933 96.3795 39.7767 103.024 38.3734L99.4275 46.5488L110.217 43.9254L113.509 36.6041C113.509 36.6041 132.041 34.2247 136.674 33.4316C149.232 31.2962 148.257 18.362 138.686 20.3753ZM60.1081 27.0865C59.1327 28.4287 54.8655 34.1027 52.4271 32.9435C50.5373 32.0894 52.2442 27.0865 54.2559 24.341C55.2313 22.9378 58.9498 17.6299 61.9979 19.0331C63.3999 19.6432 62.8513 23.1818 60.1081 27.0865ZM125.336 20.3753C125.458 20.0703 125.397 19.7042 125.214 19.4602C125.214 19.3992 125.153 19.3992 125.153 19.3382C125.031 19.2161 124.848 19.0331 124.665 19.0331C124.604 19.0331 124.177 18.9111 124.177 19.0331C124.177 18.9111 124.299 18.7891 124.36 18.6671C124.482 18.423 124.604 18.24 124.787 17.9959C125.458 16.7757 126.372 15.7385 127.347 14.7624C129.176 12.9321 130.334 12.261 131.432 11.8949C132.651 11.4678 133.809 11.7119 133.87 13.2981C133.931 14.4573 133.443 16.1656 132.346 17.6909C131.31 19.2161 130.7 20.0093 128.932 21.4735C127.408 22.8158 126.067 23.2428 125.214 23.1818C124.421 23.1208 123.69 22.5107 123.629 21.6566C123.446 20.4974 124.543 19.5212 125.336 20.3753ZM139.235 28.6728C137.893 29.5879 136.309 30.076 134.785 30.3201C133.87 30.4421 127.347 31.1132 121.861 31.6013C118.325 31.9063 115.582 32.2114 115.582 32.2114C115.582 32.2114 116.984 29.4049 117.655 28.3067C118.264 27.2085 119.544 25.2562 119.544 25.2562C119.971 27.2085 125.701 29.771 132.712 25.0732C133.809 24.341 135.333 23.0598 136.735 22.5717C140.759 21.2295 143.136 26.0493 139.235 28.6728Z" fill="white"/>
</g>
<defs>
<clipPath id="clip0_2572_11891">
<rect width="146" height="64" fill="white"/>
</clipPath>
</defs>
</svg>
